<svg id="Layer_1" data-name="Layer 1" xmlns="http://www.w3.org/2000/svg" viewBox="0 0 500 500"><defs><style>.cls-1{fill:#ff0;}.cls-2{stroke:#000;stroke-linecap:round;stroke-width:0.71px;}</style></defs><rect class="cls-1" width="500" height="500"/><path d="M239.63,261.23a31.35,31.35,0,0,0-1.77-8.64c-1.47-4.16-2.2-7-2.2-8.51a7.1,7.1,0,0,1,1.57-5,5.07,5.07,0,0,1,3.85-1.7,4.35,4.35,0,0,1,3.4,1.7,7.39,7.39,0,0,1,1.45,4.92,27.4,27.4,0,0,1-1.67,7.85,42,42,0,0,0-2,9.36,29.15,29.15,0,0,0,6.24-5.36q4.29-5,6.37-6.18A8.35,8.35,0,0,1,259,248.5a4.8,4.8,0,0,1,3.47,1.41,4.56,4.56,0,0,1,1.45,3.38,5.43,5.43,0,0,1-2.08,4.16q-2.08,1.83-10.4,3.65a46.07,46.07,0,0,0-8.07,2.46,28.46,28.46,0,0,0,8,2.58q7.62,1.39,10,3.47a6,6,0,0,1,2.36,4.54,4.43,4.43,0,0,1-1.42,3.28,4.59,4.59,0,0,1-3.31,1.38,8.56,8.56,0,0,1-4.19-1.32q-2.29-1.32-6.21-5.92a32.88,32.88,0,0,0-6.43-5.8,30.09,30.09,0,0,0,1.45,7.81q2.28,7.44,2.27,10.09a6.34,6.34,0,0,1-1.51,4.32,4.32,4.32,0,0,1-3.22,1.73,5.94,5.94,0,0,1-4.22-1.83,5.78,5.78,0,0,1-1.32-4.22,23.08,23.08,0,0,1,1.45-7.28q1.44-4.26,1.82-5.86a38.08,38.08,0,0,0,.7-4.76,34.32,34.32,0,0,0-6.49,5.48q-4.6,5.17-6.94,6.56a6.39,6.39,0,0,1-3.4,1,5.09,5.09,0,0,1-3.66-1.45,4.34,4.34,0,0,1-1.51-3.21,5.63,5.63,0,0,1,1.29-3.31A9.52,9.52,0,0,1,222.8,268a49.72,49.72,0,0,1,7.75-2,41.43,41.43,0,0,0,7.63-2.4,32.6,32.6,0,0,0-8.13-2.65q-7.76-1.64-9.58-3a6.12,6.12,0,0,1-2.84-5,4.3,4.3,0,0,1,1.42-3.12,4.51,4.51,0,0,1,3.31-1.42,9,9,0,0,1,4.41,1.32,25.4,25.4,0,0,1,5.8,5.33A30.76,30.76,0,0,0,239.63,261.23Z"/><g id="svgGroup"><path class="cls-2" d="M73.61,437.38,216.74,27.58h65.33l144.32,409.8,36.82,5.94v29.1H306.42v-29.1l49.3-5.94-27.92-87.9H154.38l-27.91,87.9,51.07,5.94v29.1H36.79v-29.1ZM316.52,314.44,254.16,122.61,239.31,70.34l-14.25,53.45-60,190.65Z"/></g></svg>